<svg xmlns="http://www.w3.org/2000/svg" width="960" height="340" viewBox="0 0 960 340">
  <rect width="100%" height="100%" fill="#fff" rx="12"/>
  <text x="20" y="22" font-size="13" font-weight="600" fill="#0f172a">Прогноз (рассрочки) — Помесячно · линия: 03.06.2026 · отсечение факта: апр. 26</text>
  <circle cx="720" cy="18" r="5" fill="#2563eb"/><text x="732" y="22" font-size="11" fill="#334155">Прогноз</text>
  <circle cx="810" cy="18" r="5" fill="#22c55e"/><text x="822" y="22" font-size="11" fill="#334155">Факт</text>
  <path d="M 56.0 292.0 L 167.0 63.4 L 278.0 125.8 L 389.0 75.4 L 500.0 98.5 L 611.0 174.5 L 722.0 162.4 L 833.0 221.4 L 944.0 150.8 L 944.0 292.0 L 56.0 292.0 Z" fill="url(#g)" opacity="0.35"/>
  <defs><linearGradient id="g" x1="0" y1="0" x2="0" y2="1"><stop offset="0%" stop-color="#3b82f6"/><stop offset="100%" stop-color="#3b82f6" stop-opacity="0.05"/></linearGradient></defs>
  <path d="M 56.0 292.0 L 167.0 63.4 L 278.0 125.8 L 389.0 75.4 L 500.0 98.5 L 611.0 174.5 L 722.0 162.4 L 833.0 221.4 L 944.0 150.8" fill="none" stroke="#3b82f6" stroke-width="2"/>
  <path d="M 56.0,202.5" fill="none" stroke="#22c55e" stroke-width="2.5"/>
  
  <line x1="231.8" y1="36" x2="231.8" y2="292" stroke="rgba(163,179,199,0.52)" stroke-width="1.5" stroke-dasharray="4 5"/>
  <text x="231.8" y="30" text-anchor="middle" font-size="10" font-weight="600" fill="rgba(71,85,105,0.95)">03.06.2026</text>
  <text x="56" y="328" text-anchor="middle" font-size="10" fill="#64748b">апр. 26</text><text x="167" y="328" text-anchor="middle" font-size="10" fill="#64748b">май. 26</text><text x="278" y="328" text-anchor="middle" font-size="10" fill="#64748b">июн. 26</text><text x="389" y="328" text-anchor="middle" font-size="10" fill="#64748b">июл. 26</text><text x="500" y="328" text-anchor="middle" font-size="10" fill="#64748b">авг. 26</text><text x="611" y="328" text-anchor="middle" font-size="10" fill="#64748b">сен. 26</text><text x="722" y="328" text-anchor="middle" font-size="10" fill="#64748b">окт. 26</text><text x="833" y="328" text-anchor="middle" font-size="10" fill="#64748b">ноя. 26</text><text x="944" y="328" text-anchor="middle" font-size="10" fill="#64748b">дек. 26</text>
</svg>