<?xml version="1.0" standalone="no"?>
<!DOCTYPE svg PUBLIC "-//W3C//DTD SVG 20010904//EN"
 "http://www.w3.org/TR/2001/REC-SVG-20010904/DTD/svg10.dtd">
<svg version="1.0" xmlns="http://www.w3.org/2000/svg"
 width="4138.000000pt" height="1814.000000pt" viewBox="0 0 4138.000000 1814.000000"
 preserveAspectRatio="xMidYMid meet">

<g transform="translate(0.000000,1814.000000) scale(0.100000,-0.100000)"
fill="currentColor" stroke="none">
<path d="M33500 13174 c-424 -51 -736 -152 -1057 -342 -784 -464 -1227 -1282
-1172 -2162 20 -324 87 -578 229 -865 132 -268 265 -449 487 -665 391 -382
894 -621 1439 -685 165 -19 463 -19 628 0 567 66 1086 322 1487 732 198 203
314 365 438 614 164 330 234 632 234 1014 1 461 -116 859 -364 1240 -385 594
-998 986 -1719 1100 -101 16 -542 29 -630 19z m475 -1160 c496 -81 885 -471
969 -973 20 -120 21 -337 1 -461 -111 -682 -759 -1109 -1470 -969 -417 83
-765 393 -896 798 -77 241 -79 552 -3 791 38 122 76 201 149 311 266 399 734
587 1250 503z"/>
<path d="M5047 13063 c-4 -3 -7 -1020 -7 -2260 l0 -2253 630 0 630 0 0 1698 0
1699 383 6 c210 4 628 7 930 7 l547 0 0 555 0 555 -1553 0 c-855 0 -1557 -3
-1560 -7z"/>
<path d="M9590 10810 l0 -2260 2475 0 2475 0 0 2260 0 2260 -2475 0 -2475 0 0
-2260z m3698 -2 l2 -1148 -1220 0 -1220 0 0 1150 0 1150 1218 -2 1217 -3 3
-1147z"/>
<path d="M15980 10810 l0 -2260 628 2 627 3 3 623 2 622 408 0 c556 0 699 15
953 100 238 79 424 193 600 369 222 223 355 474 426 810 26 118 27 143 27 376
0 281 -11 358 -80 556 -82 235 -207 433 -380 600 -233 223 -516 365 -857 431
-110 21 -134 22 -1234 25 l-1123 4 0 -2261z m2091 1121 c92 -37 186 -116 246
-204 66 -97 87 -166 87 -277 -2 -210 -116 -400 -292 -488 l-76 -37 -398 -3
-398 -3 0 521 0 521 388 -3 c378 -3 388 -4 443 -27z"/>
<path d="M20842 10813 l3 -2258 3470 -3 c2537 -2 3512 0 3625 8 380 28 677
105 985 255 640 311 1037 845 1166 1570 27 153 38 538 19 708 -107 991 -771
1704 -1785 1916 -281 59 14 55 -3903 58 l-3582 3 2 -2257z m7033 1136 c291
-35 521 -140 690 -313 185 -190 280 -441 292 -776 24 -663 -299 -1071 -938
-1181 -59 -11 -660 -14 -2956 -16 l-2883 -3 0 1150 0 1150 2853 0 c2006 0
2879 -3 2942 -11z"/>
<path d="M14905 6854 c-419 -93 -683 -464 -650 -913 17 -236 100 -418 262
-571 68 -65 105 -90 188 -131 145 -71 256 -93 430 -86 133 6 204 20 307 61
238 96 414 307 480 573 17 70 21 117 21 228 -1 172 -27 287 -99 427 -39 76
-65 110 -144 189 -85 86 -107 102 -200 147 -58 28 -132 58 -165 67 -88 24
-339 29 -430 9z m378 -200 c163 -42 311 -163 386 -315 50 -103 71 -199 71
-330 0 -278 -131 -501 -355 -605 -93 -43 -170 -58 -290 -57 -190 1 -327 55
-451 178 -126 126 -184 278 -184 485 0 207 58 359 184 485 133 132 289 189
489 179 49 -2 116 -11 150 -20z"/>
<path d="M5136 6818 c-3 -13 -17 -192 -31 -398 -54 -773 -60 -820 -110 -920
-14 -28 -42 -69 -62 -90 l-35 -40 -99 0 -99 0 2 -287 3 -288 95 0 95 0 3 193
2 192 678 -2 677 -3 3 -193 2 -193 93 3 92 3 3 288 2 287 -130 0 -130 0 0 735
0 735 -525 0 -525 0 -4 -22z m854 -808 l0 -640 -424 0 -425 0 25 44 c71 127
86 219 125 774 l33 462 333 0 333 0 0 -640z"/>
<path d="M7030 6010 l0 -830 530 0 530 0 0 95 0 95 -430 0 -430 0 0 280 0 280
383 2 382 3 3 93 3 92 -386 0 -385 0 0 270 0 270 415 0 415 0 0 90 0 90 -515
0 -515 0 0 -830z"/>
<path d="M8730 6010 l0 -830 393 0 c427 0 465 4 575 58 72 35 151 107 185 169
72 134 75 310 6 445 -25 49 -109 140 -155 168 l-32 21 54 51 c129 122 165 327
88 499 -30 66 -124 163 -191 198 -94 47 -132 51 -540 51 l-383 0 0 -830z m790
624 c109 -50 160 -130 160 -250 0 -120 -63 -213 -169 -249 -36 -12 -98 -15
-313 -15 l-268 0 0 271 0 271 273 -4 c251 -3 276 -5 317 -24z m50 -720 c67
-31 106 -68 136 -130 22 -45 27 -68 27 -133 0 -97 -24 -153 -88 -209 -76 -67
-108 -72 -431 -72 l-284 0 0 286 0 285 298 -3 c277 -3 300 -4 342 -24z"/>
<path d="M10580 6010 l0 -830 530 0 530 0 0 95 0 95 -430 0 -430 0 0 280 0
280 383 2 382 3 0 90 0 90 -382 3 -383 2 0 270 0 270 415 0 415 0 0 90 0 90
-515 0 -515 0 0 -830z"/>
<path d="M12506 6788 c-4 -29 -22 -279 -41 -555 -19 -276 -42 -534 -50 -574
-36 -172 -99 -240 -268 -294 -81 -26 -78 -18 -46 -127 23 -78 23 -78 125 -47
139 43 248 121 307 222 38 64 74 180 91 288 8 52 27 276 41 499 14 223 28 415
31 428 l4 22 355 0 355 0 0 -735 0 -735 100 0 100 0 0 830 0 830 -549 0 -550
0 -5 -52z"/>
<path d="M16590 6010 l0 -830 100 0 100 0 0 735 0 735 465 0 465 0 0 -735 0
-735 100 0 100 0 0 830 0 830 -665 0 -665 0 0 -830z"/>
<path d="M18670 6010 l0 -830 100 0 100 0 2 658 3 657 278 -362 278 -363 57 0
57 0 280 363 280 364 3 -659 2 -658 100 0 100 0 0 830 0 830 -92 0 -93 0 -310
-406 c-170 -223 -315 -409 -321 -414 -7 -6 -115 129 -325 405 l-314 414 -92 0
-93 1 0 -830z"/>
<path d="M21060 6010 l0 -830 530 0 530 0 0 95 0 95 -430 0 -430 0 0 280 0
280 383 2 382 3 3 93 3 92 -386 0 -385 0 2 268 3 267 413 3 412 2 0 90 0 90
-515 0 -515 0 0 -830z"/>
<path d="M22760 6010 l0 -830 100 0 100 0 0 375 0 375 465 0 465 0 0 -375 0
-375 100 0 100 0 0 830 0 830 -100 0 -100 0 0 -360 0 -360 -462 2 -463 3 -3
358 -2 357 -100 0 -100 0 0 -830z"/>
<path d="M24670 6745 l0 -95 270 0 270 0 0 -735 0 -735 100 0 100 0 0 735 0
735 270 0 270 0 0 95 0 95 -640 0 -640 0 0 -95z"/>
</g>
</svg>
