<svg xmlns="http://www.w3.org/2000/svg" viewBox="0 0 3124 475" fill="currentColor" aria-hidden="true">
  <g transform="translate(0,475) scale(0.1,-0.1)" stroke="none">
    <path d="M23610 4740 c-870 -64 -1658 -588 -2033 -1352 -334 -680 -307 -1496 71 -2150 214 -369 496 -654 875 -880 320 -190 653 -300 1033 -338 77 -8 894 -10 2804 -8 2925 4 2718 0 2964 54 489 107 1003 408 1320 773 545 629 725 1414 501 2190 -124 430 -417 865 -780 1155 -360 289 -754 462 -1220 538 l-140 22 -2645 2 c-1455 1 -2692 -2 -2750 -6z m5263 -1140 c445 -36 803 -276 993 -664 162 -334 166 -762 8 -1105 -81 -176 -246 -371 -402 -475 -148 -98 -355 -174 -532 -196 -70 -8 -774 -10 -2710 -8 -2885 4 -2637 -1 -2828 64 -272 94 -516 294 -654 539 -199 351 -209 836 -26 1200 89 175 261 365 422 464 160 99 359 165 546 180 147 13 5033 13 5183 1z" />
    <path d="M10 2370 l0 -2260 625 0 625 0 0 1705 0 1705 928 2 927 3 3 553 2 552 -1555 0 -1555 0 0 -2260z" />
    <path d="M4560 2370 l0 -2260 2473 2 2472 3 3 2258 2 2257 -2475 0 -2475 0 0 -2260z m3700 0 l0 -1150 -1225 0 -1225 0 0 1150 0 1150 1225 0 1225 0 0 -1150z" />
    <path d="M10950 2375 l0 -2255 625 0 625 0 0 625 0 625 440 0 c245 0 484 5 538 11 395 43 733 198 987 453 243 244 384 531 441 901 19 123 22 428 5 540 -48 308 -170 579 -363 805 -212 247 -537 433 -888 508 -184 40 -257 42 -1350 42 l-1060 0 0 -2255z m2068 1127 c169 -53 324 -234 351 -411 11 -65 2 -168 -20 -246 -35 -127 -154 -268 -274 -326 l-70 -34 -402 -3 -403 -3 0 520 0 521 379 0 c341 0 385 -2 439 -18z" />
    <path d="M15820 2375 l0 -2256 1123 4 c1176 4 1129 2 1377 47 278 50 588 167 829 314 255 156 490 381 650 626 163 249 273 542 328 875 26 158 26 622 0 780 -57 344 -165 626 -338 886 -312 466 -821 793 -1430 918 -270 56 -249 55 -1436 59 l-1103 3 0 -2256z m2170 1126 c259 -46 449 -139 606 -295 112 -113 178 -224 234 -397 82 -248 85 -605 9 -864 -89 -304 -321 -539 -636 -646 -182 -62 -264 -70 -730 -76 l-423 -5 0 1157 0 1158 413 -6 c356 -4 428 -8 527 -26z" />
  </g>
</svg>
